<mxfile host="app.diagrams.net" agent="Mozilla/5.0 (Macintosh; Intel Mac OS X 10_15_7) AppleWebKit/537.36 (KHTML, like Gecko) Chrome/137.0.0.0 Safari/537.36" version="27.1.4">
  <diagram name="第 1 页" id="gOwj-vQniG3H-YBWemjl">
    <mxGraphModel dx="2249" dy="1315" grid="1" gridSize="10" guides="1" tooltips="1" connect="1" arrows="1" fold="1" page="1" pageScale="1" pageWidth="4800" pageHeight="4800" math="0" shadow="0">
      <root>
        <mxCell id="0" />
        <mxCell id="1" parent="0" />
        <mxCell id="X8sbBprj1SlT98JKXLwf-49" value="" style="rounded=1;whiteSpace=wrap;html=1;sketch=1;curveFitting=1;jiggle=2;" vertex="1" parent="1">
          <mxGeometry x="380" y="600" width="1530" height="580" as="geometry" />
        </mxCell>
        <mxCell id="X8sbBprj1SlT98JKXLwf-50" style="edgeStyle=orthogonalEdgeStyle;rounded=0;orthogonalLoop=1;jettySize=auto;html=1;exitX=0.5;exitY=1;exitDx=0;exitDy=0;entryX=0;entryY=0.5;entryDx=0;entryDy=0;sketch=1;curveFitting=1;jiggle=2;" edge="1" parent="1" source="X8sbBprj1SlT98JKXLwf-54" target="X8sbBprj1SlT98JKXLwf-77">
          <mxGeometry relative="1" as="geometry" />
        </mxCell>
        <mxCell id="X8sbBprj1SlT98JKXLwf-51" value="对比结果" style="edgeLabel;html=1;align=center;verticalAlign=middle;resizable=0;points=[];fontSize=20;sketch=1;curveFitting=1;jiggle=2;" vertex="1" connectable="0" parent="X8sbBprj1SlT98JKXLwf-50">
          <mxGeometry x="0.1" y="-4" relative="1" as="geometry">
            <mxPoint as="offset" />
          </mxGeometry>
        </mxCell>
        <mxCell id="X8sbBprj1SlT98JKXLwf-52" style="edgeStyle=orthogonalEdgeStyle;rounded=0;orthogonalLoop=1;jettySize=auto;html=1;exitX=0.5;exitY=1;exitDx=0;exitDy=0;entryX=0;entryY=0.75;entryDx=0;entryDy=0;sketch=1;curveFitting=1;jiggle=2;" edge="1" parent="1" source="X8sbBprj1SlT98JKXLwf-54" target="X8sbBprj1SlT98JKXLwf-81">
          <mxGeometry relative="1" as="geometry" />
        </mxCell>
        <mxCell id="X8sbBprj1SlT98JKXLwf-53" value="错误信息" style="edgeLabel;html=1;align=center;verticalAlign=middle;resizable=0;points=[];fontSize=20;sketch=1;curveFitting=1;jiggle=2;" vertex="1" connectable="0" parent="X8sbBprj1SlT98JKXLwf-52">
          <mxGeometry x="0.3483" y="2" relative="1" as="geometry">
            <mxPoint y="1" as="offset" />
          </mxGeometry>
        </mxCell>
        <mxCell id="X8sbBprj1SlT98JKXLwf-54" value="" style="rounded=1;whiteSpace=wrap;html=1;fillColor=#f5f5f5;fontColor=#333333;strokeColor=#666666;sketch=1;curveFitting=1;jiggle=2;" vertex="1" parent="1">
          <mxGeometry x="920" y="780" width="200" height="200" as="geometry" />
        </mxCell>
        <mxCell id="X8sbBprj1SlT98JKXLwf-55" value="payload.txt" style="rounded=0;whiteSpace=wrap;html=1;fillColor=#dae8fc;strokeColor=#6c8ebf;fontSize=20;sketch=1;curveFitting=1;jiggle=2;" vertex="1" parent="1">
          <mxGeometry x="480" y="860" width="120" height="40" as="geometry" />
        </mxCell>
        <mxCell id="X8sbBprj1SlT98JKXLwf-56" value="请求对比器" style="rounded=0;whiteSpace=wrap;html=1;fontSize=20;fillColor=#f8cecc;strokeColor=#b85450;sketch=1;curveFitting=1;jiggle=2;" vertex="1" parent="1">
          <mxGeometry x="960" y="794" width="120" height="40" as="geometry" />
        </mxCell>
        <mxCell id="X8sbBprj1SlT98JKXLwf-57" value="task_1_output.txt" style="rounded=0;whiteSpace=wrap;html=1;fontSize=20;fillColor=#dae8fc;strokeColor=#6c8ebf;sketch=1;curveFitting=1;jiggle=2;" vertex="1" parent="1">
          <mxGeometry x="1570" y="820" width="290" height="40" as="geometry" />
        </mxCell>
        <mxCell id="X8sbBprj1SlT98JKXLwf-58" value="task_1_failed_payload.txt" style="rounded=0;whiteSpace=wrap;html=1;fontSize=20;fillColor=#dae8fc;strokeColor=#6c8ebf;sketch=1;curveFitting=1;jiggle=2;" vertex="1" parent="1">
          <mxGeometry x="1570" y="900" width="290" height="40" as="geometry" />
        </mxCell>
        <mxCell id="X8sbBprj1SlT98JKXLwf-59" value="请求对比器" style="rounded=0;whiteSpace=wrap;html=1;fontSize=20;fillColor=#f8cecc;strokeColor=#b85450;sketch=1;curveFitting=1;jiggle=2;" vertex="1" parent="1">
          <mxGeometry x="960" y="926" width="120" height="40" as="geometry" />
        </mxCell>
        <mxCell id="X8sbBprj1SlT98JKXLwf-60" style="edgeStyle=orthogonalEdgeStyle;rounded=0;orthogonalLoop=1;jettySize=auto;html=1;exitX=0;exitY=0.5;exitDx=0;exitDy=0;sketch=1;curveFitting=1;jiggle=2;" edge="1" parent="1" source="X8sbBprj1SlT98JKXLwf-63" target="X8sbBprj1SlT98JKXLwf-55">
          <mxGeometry relative="1" as="geometry" />
        </mxCell>
        <mxCell id="X8sbBprj1SlT98JKXLwf-61" style="edgeStyle=orthogonalEdgeStyle;rounded=0;orthogonalLoop=1;jettySize=auto;html=1;exitX=0.5;exitY=0;exitDx=0;exitDy=0;entryX=0;entryY=0.75;entryDx=0;entryDy=0;sketch=1;curveFitting=1;jiggle=2;" edge="1" parent="1" source="X8sbBprj1SlT98JKXLwf-63" target="X8sbBprj1SlT98JKXLwf-72">
          <mxGeometry relative="1" as="geometry" />
        </mxCell>
        <mxCell id="X8sbBprj1SlT98JKXLwf-62" value="写数据" style="edgeLabel;html=1;align=center;verticalAlign=middle;resizable=0;points=[];fontSize=20;sketch=1;curveFitting=1;jiggle=2;" vertex="1" connectable="0" parent="X8sbBprj1SlT98JKXLwf-61">
          <mxGeometry x="-0.1193" y="-3" relative="1" as="geometry">
            <mxPoint as="offset" />
          </mxGeometry>
        </mxCell>
        <mxCell id="X8sbBprj1SlT98JKXLwf-63" value="数据读取器" style="rounded=0;whiteSpace=wrap;html=1;fillColor=#f8cecc;strokeColor=#b85450;fontSize=20;sketch=1;curveFitting=1;jiggle=2;" vertex="1" parent="1">
          <mxGeometry x="680" y="860" width="120" height="40" as="geometry" />
        </mxCell>
        <mxCell id="X8sbBprj1SlT98JKXLwf-64" style="edgeStyle=orthogonalEdgeStyle;rounded=0;orthogonalLoop=1;jettySize=auto;html=1;exitX=1;exitY=0.5;exitDx=0;exitDy=0;entryX=0;entryY=0.5;entryDx=0;entryDy=0;sketch=1;curveFitting=1;jiggle=2;" edge="1" parent="1" source="X8sbBprj1SlT98JKXLwf-66" target="X8sbBprj1SlT98JKXLwf-57">
          <mxGeometry relative="1" as="geometry" />
        </mxCell>
        <mxCell id="X8sbBprj1SlT98JKXLwf-65" value="写文件" style="edgeLabel;html=1;align=center;verticalAlign=middle;resizable=0;points=[];fontSize=20;sketch=1;curveFitting=1;jiggle=2;" vertex="1" connectable="0" parent="X8sbBprj1SlT98JKXLwf-64">
          <mxGeometry x="-0.19" relative="1" as="geometry">
            <mxPoint as="offset" />
          </mxGeometry>
        </mxCell>
        <mxCell id="X8sbBprj1SlT98JKXLwf-66" value="结果记录器" style="rounded=0;whiteSpace=wrap;html=1;fontSize=20;fillColor=#f8cecc;strokeColor=#b85450;sketch=1;curveFitting=1;jiggle=2;" vertex="1" parent="1">
          <mxGeometry x="1250" y="820" width="120" height="40" as="geometry" />
        </mxCell>
        <mxCell id="X8sbBprj1SlT98JKXLwf-67" style="edgeStyle=orthogonalEdgeStyle;rounded=0;orthogonalLoop=1;jettySize=auto;html=1;exitX=1;exitY=0.5;exitDx=0;exitDy=0;sketch=1;curveFitting=1;jiggle=2;" edge="1" parent="1" source="X8sbBprj1SlT98JKXLwf-69" target="X8sbBprj1SlT98JKXLwf-58">
          <mxGeometry relative="1" as="geometry" />
        </mxCell>
        <mxCell id="X8sbBprj1SlT98JKXLwf-68" value="写文件" style="edgeLabel;html=1;align=center;verticalAlign=middle;resizable=0;points=[];fontSize=20;sketch=1;curveFitting=1;jiggle=2;" vertex="1" connectable="0" parent="X8sbBprj1SlT98JKXLwf-67">
          <mxGeometry x="-0.12" y="-1" relative="1" as="geometry">
            <mxPoint as="offset" />
          </mxGeometry>
        </mxCell>
        <mxCell id="X8sbBprj1SlT98JKXLwf-69" value="错误记录器" style="rounded=0;whiteSpace=wrap;html=1;fontSize=20;fillColor=#f8cecc;strokeColor=#b85450;sketch=1;curveFitting=1;jiggle=2;" vertex="1" parent="1">
          <mxGeometry x="1250" y="900" width="120" height="40" as="geometry" />
        </mxCell>
        <mxCell id="X8sbBprj1SlT98JKXLwf-70" style="edgeStyle=orthogonalEdgeStyle;rounded=0;orthogonalLoop=1;jettySize=auto;html=1;exitX=1;exitY=0.5;exitDx=0;exitDy=0;sketch=1;curveFitting=1;jiggle=2;" edge="1" parent="1" source="X8sbBprj1SlT98JKXLwf-72" target="X8sbBprj1SlT98JKXLwf-54">
          <mxGeometry relative="1" as="geometry" />
        </mxCell>
        <mxCell id="X8sbBprj1SlT98JKXLwf-71" value="读数据" style="edgeLabel;html=1;align=center;verticalAlign=middle;resizable=0;points=[];fontSize=20;sketch=1;curveFitting=1;jiggle=2;" vertex="1" connectable="0" parent="X8sbBprj1SlT98JKXLwf-70">
          <mxGeometry x="0.1355" y="-1" relative="1" as="geometry">
            <mxPoint as="offset" />
          </mxGeometry>
        </mxCell>
        <mxCell id="X8sbBprj1SlT98JKXLwf-72" value="" style="rounded=1;whiteSpace=wrap;html=1;fillColor=#ffe6cc;strokeColor=#d79b00;sketch=1;curveFitting=1;jiggle=2;" vertex="1" parent="1">
          <mxGeometry x="760" y="640" width="240" height="10" as="geometry" />
        </mxCell>
        <mxCell id="X8sbBprj1SlT98JKXLwf-73" value="请求参数 channel" style="text;html=1;align=center;verticalAlign=middle;whiteSpace=wrap;rounded=0;fontSize=20;fillColor=#f5f5f5;strokeColor=#666666;fontColor=#333333;sketch=1;curveFitting=1;jiggle=2;" vertex="1" parent="1">
          <mxGeometry x="520" y="630" width="200" height="30" as="geometry" />
        </mxCell>
        <mxCell id="X8sbBprj1SlT98JKXLwf-74" value="... ...." style="rounded=0;whiteSpace=wrap;html=1;fontSize=20;fillColor=#f8cecc;strokeColor=#b85450;sketch=1;curveFitting=1;jiggle=2;" vertex="1" parent="1">
          <mxGeometry x="960" y="860" width="120" height="40" as="geometry" />
        </mxCell>
        <mxCell id="X8sbBprj1SlT98JKXLwf-75" style="edgeStyle=orthogonalEdgeStyle;rounded=0;orthogonalLoop=1;jettySize=auto;html=1;exitX=1;exitY=0;exitDx=0;exitDy=0;entryX=0;entryY=0.5;entryDx=0;entryDy=0;sketch=1;curveFitting=1;jiggle=2;" edge="1" parent="1" source="X8sbBprj1SlT98JKXLwf-77" target="X8sbBprj1SlT98JKXLwf-66">
          <mxGeometry relative="1" as="geometry">
            <Array as="points">
              <mxPoint x="1360" y="1010" />
              <mxPoint x="1170" y="1010" />
              <mxPoint x="1170" y="840" />
            </Array>
          </mxGeometry>
        </mxCell>
        <mxCell id="X8sbBprj1SlT98JKXLwf-76" value="读数据" style="edgeLabel;html=1;align=center;verticalAlign=middle;resizable=0;points=[];fontSize=20;sketch=1;curveFitting=1;jiggle=2;" vertex="1" connectable="0" parent="X8sbBprj1SlT98JKXLwf-75">
          <mxGeometry x="-0.542" y="-1" relative="1" as="geometry">
            <mxPoint as="offset" />
          </mxGeometry>
        </mxCell>
        <mxCell id="X8sbBprj1SlT98JKXLwf-77" value="" style="rounded=1;whiteSpace=wrap;html=1;fillColor=#fff2cc;strokeColor=#d6b656;sketch=1;curveFitting=1;jiggle=2;" vertex="1" parent="1">
          <mxGeometry x="1120" y="1035" width="240" height="10" as="geometry" />
        </mxCell>
        <mxCell id="X8sbBprj1SlT98JKXLwf-78" value="对比结果 channel" style="text;html=1;align=center;verticalAlign=middle;whiteSpace=wrap;rounded=0;fontSize=20;fillColor=#f5f5f5;fontColor=#333333;strokeColor=#666666;sketch=1;curveFitting=1;jiggle=2;" vertex="1" parent="1">
          <mxGeometry x="1405" y="1025" width="205" height="30" as="geometry" />
        </mxCell>
        <mxCell id="X8sbBprj1SlT98JKXLwf-79" style="edgeStyle=orthogonalEdgeStyle;rounded=0;orthogonalLoop=1;jettySize=auto;html=1;exitX=1;exitY=0.5;exitDx=0;exitDy=0;entryX=0.5;entryY=1;entryDx=0;entryDy=0;sketch=1;curveFitting=1;jiggle=2;" edge="1" parent="1" source="X8sbBprj1SlT98JKXLwf-81" target="X8sbBprj1SlT98JKXLwf-69">
          <mxGeometry relative="1" as="geometry">
            <Array as="points">
              <mxPoint x="1380" y="1123" />
              <mxPoint x="1380" y="980" />
              <mxPoint x="1310" y="980" />
            </Array>
          </mxGeometry>
        </mxCell>
        <mxCell id="X8sbBprj1SlT98JKXLwf-80" value="读数据" style="edgeLabel;html=1;align=center;verticalAlign=middle;resizable=0;points=[];fontSize=20;sketch=1;curveFitting=1;jiggle=2;" vertex="1" connectable="0" parent="X8sbBprj1SlT98JKXLwf-79">
          <mxGeometry x="0.4359" relative="1" as="geometry">
            <mxPoint as="offset" />
          </mxGeometry>
        </mxCell>
        <mxCell id="X8sbBprj1SlT98JKXLwf-81" value="" style="rounded=1;whiteSpace=wrap;html=1;fillColor=#fff2cc;strokeColor=#d6b656;sketch=1;curveFitting=1;jiggle=2;" vertex="1" parent="1">
          <mxGeometry x="1120" y="1118" width="240" height="10" as="geometry" />
        </mxCell>
        <mxCell id="X8sbBprj1SlT98JKXLwf-82" value="错误数据 channel" style="text;html=1;align=center;verticalAlign=middle;whiteSpace=wrap;rounded=0;fontSize=20;fillColor=#f5f5f5;fontColor=#333333;strokeColor=#666666;sketch=1;curveFitting=1;jiggle=2;" vertex="1" parent="1">
          <mxGeometry x="1407.5" y="1108" width="200" height="30" as="geometry" />
        </mxCell>
        <mxCell id="X8sbBprj1SlT98JKXLwf-83" value="&lt;font style=&quot;font-size: 24px;&quot;&gt;Task_1&lt;/font&gt;" style="text;html=1;align=center;verticalAlign=middle;whiteSpace=wrap;rounded=0;fillColor=#f5f5f5;strokeColor=#666666;fontColor=#333333;sketch=1;curveFitting=1;jiggle=2;" vertex="1" parent="1">
          <mxGeometry x="1520" y="640" width="300" height="80" as="geometry" />
        </mxCell>
        <mxCell id="X8sbBprj1SlT98JKXLwf-121" value="" style="rounded=1;whiteSpace=wrap;html=1;sketch=1;curveFitting=1;jiggle=2;" vertex="1" parent="1">
          <mxGeometry x="380" y="1360" width="1530" height="580" as="geometry" />
        </mxCell>
        <mxCell id="X8sbBprj1SlT98JKXLwf-122" style="edgeStyle=orthogonalEdgeStyle;rounded=0;orthogonalLoop=1;jettySize=auto;html=1;exitX=0.5;exitY=1;exitDx=0;exitDy=0;entryX=0;entryY=0.5;entryDx=0;entryDy=0;sketch=1;curveFitting=1;jiggle=2;" edge="1" parent="1" source="X8sbBprj1SlT98JKXLwf-126" target="X8sbBprj1SlT98JKXLwf-149">
          <mxGeometry relative="1" as="geometry" />
        </mxCell>
        <mxCell id="X8sbBprj1SlT98JKXLwf-123" value="对比结果" style="edgeLabel;html=1;align=center;verticalAlign=middle;resizable=0;points=[];fontSize=20;sketch=1;curveFitting=1;jiggle=2;" vertex="1" connectable="0" parent="X8sbBprj1SlT98JKXLwf-122">
          <mxGeometry x="0.1" y="-4" relative="1" as="geometry">
            <mxPoint as="offset" />
          </mxGeometry>
        </mxCell>
        <mxCell id="X8sbBprj1SlT98JKXLwf-124" style="edgeStyle=orthogonalEdgeStyle;rounded=0;orthogonalLoop=1;jettySize=auto;html=1;exitX=0.5;exitY=1;exitDx=0;exitDy=0;entryX=0;entryY=0.75;entryDx=0;entryDy=0;sketch=1;curveFitting=1;jiggle=2;" edge="1" parent="1" source="X8sbBprj1SlT98JKXLwf-126" target="X8sbBprj1SlT98JKXLwf-153">
          <mxGeometry relative="1" as="geometry" />
        </mxCell>
        <mxCell id="X8sbBprj1SlT98JKXLwf-125" value="错误信息" style="edgeLabel;html=1;align=center;verticalAlign=middle;resizable=0;points=[];fontSize=20;sketch=1;curveFitting=1;jiggle=2;" vertex="1" connectable="0" parent="X8sbBprj1SlT98JKXLwf-124">
          <mxGeometry x="0.3483" y="2" relative="1" as="geometry">
            <mxPoint y="1" as="offset" />
          </mxGeometry>
        </mxCell>
        <mxCell id="X8sbBprj1SlT98JKXLwf-126" value="" style="rounded=1;whiteSpace=wrap;html=1;fillColor=#f5f5f5;fontColor=#333333;strokeColor=#666666;sketch=1;curveFitting=1;jiggle=2;" vertex="1" parent="1">
          <mxGeometry x="920" y="1540" width="200" height="200" as="geometry" />
        </mxCell>
        <mxCell id="X8sbBprj1SlT98JKXLwf-127" value="payload.txt" style="rounded=0;whiteSpace=wrap;html=1;fillColor=#dae8fc;strokeColor=#6c8ebf;fontSize=20;sketch=1;curveFitting=1;jiggle=2;" vertex="1" parent="1">
          <mxGeometry x="480" y="1620" width="120" height="40" as="geometry" />
        </mxCell>
        <mxCell id="X8sbBprj1SlT98JKXLwf-128" value="请求对比器" style="rounded=0;whiteSpace=wrap;html=1;fontSize=20;fillColor=#f8cecc;strokeColor=#b85450;sketch=1;curveFitting=1;jiggle=2;" vertex="1" parent="1">
          <mxGeometry x="960" y="1554" width="120" height="40" as="geometry" />
        </mxCell>
        <mxCell id="X8sbBprj1SlT98JKXLwf-129" value="task_N_output.txt" style="rounded=0;whiteSpace=wrap;html=1;fontSize=20;fillColor=#dae8fc;strokeColor=#6c8ebf;sketch=1;curveFitting=1;jiggle=2;" vertex="1" parent="1">
          <mxGeometry x="1570" y="1580" width="290" height="40" as="geometry" />
        </mxCell>
        <mxCell id="X8sbBprj1SlT98JKXLwf-130" value="task_N_failed_payload.txt" style="rounded=0;whiteSpace=wrap;html=1;fontSize=20;fillColor=#dae8fc;strokeColor=#6c8ebf;sketch=1;curveFitting=1;jiggle=2;" vertex="1" parent="1">
          <mxGeometry x="1570" y="1660" width="290" height="40" as="geometry" />
        </mxCell>
        <mxCell id="X8sbBprj1SlT98JKXLwf-131" value="请求对比器" style="rounded=0;whiteSpace=wrap;html=1;fontSize=20;fillColor=#f8cecc;strokeColor=#b85450;sketch=1;curveFitting=1;jiggle=2;" vertex="1" parent="1">
          <mxGeometry x="960" y="1686" width="120" height="40" as="geometry" />
        </mxCell>
        <mxCell id="X8sbBprj1SlT98JKXLwf-132" style="edgeStyle=orthogonalEdgeStyle;rounded=0;orthogonalLoop=1;jettySize=auto;html=1;exitX=0;exitY=0.5;exitDx=0;exitDy=0;sketch=1;curveFitting=1;jiggle=2;" edge="1" parent="1" source="X8sbBprj1SlT98JKXLwf-135" target="X8sbBprj1SlT98JKXLwf-127">
          <mxGeometry relative="1" as="geometry" />
        </mxCell>
        <mxCell id="X8sbBprj1SlT98JKXLwf-133" style="edgeStyle=orthogonalEdgeStyle;rounded=0;orthogonalLoop=1;jettySize=auto;html=1;exitX=0.5;exitY=0;exitDx=0;exitDy=0;entryX=0;entryY=0.75;entryDx=0;entryDy=0;sketch=1;curveFitting=1;jiggle=2;" edge="1" parent="1" source="X8sbBprj1SlT98JKXLwf-135" target="X8sbBprj1SlT98JKXLwf-144">
          <mxGeometry relative="1" as="geometry" />
        </mxCell>
        <mxCell id="X8sbBprj1SlT98JKXLwf-134" value="写数据" style="edgeLabel;html=1;align=center;verticalAlign=middle;resizable=0;points=[];fontSize=20;sketch=1;curveFitting=1;jiggle=2;" vertex="1" connectable="0" parent="X8sbBprj1SlT98JKXLwf-133">
          <mxGeometry x="-0.1193" y="-3" relative="1" as="geometry">
            <mxPoint as="offset" />
          </mxGeometry>
        </mxCell>
        <mxCell id="X8sbBprj1SlT98JKXLwf-135" value="数据读取器" style="rounded=0;whiteSpace=wrap;html=1;fillColor=#f8cecc;strokeColor=#b85450;fontSize=20;sketch=1;curveFitting=1;jiggle=2;" vertex="1" parent="1">
          <mxGeometry x="680" y="1620" width="120" height="40" as="geometry" />
        </mxCell>
        <mxCell id="X8sbBprj1SlT98JKXLwf-136" style="edgeStyle=orthogonalEdgeStyle;rounded=0;orthogonalLoop=1;jettySize=auto;html=1;exitX=1;exitY=0.5;exitDx=0;exitDy=0;entryX=0;entryY=0.5;entryDx=0;entryDy=0;sketch=1;curveFitting=1;jiggle=2;" edge="1" parent="1" source="X8sbBprj1SlT98JKXLwf-138" target="X8sbBprj1SlT98JKXLwf-129">
          <mxGeometry relative="1" as="geometry" />
        </mxCell>
        <mxCell id="X8sbBprj1SlT98JKXLwf-137" value="写文件" style="edgeLabel;html=1;align=center;verticalAlign=middle;resizable=0;points=[];fontSize=20;sketch=1;curveFitting=1;jiggle=2;" vertex="1" connectable="0" parent="X8sbBprj1SlT98JKXLwf-136">
          <mxGeometry x="-0.19" relative="1" as="geometry">
            <mxPoint as="offset" />
          </mxGeometry>
        </mxCell>
        <mxCell id="X8sbBprj1SlT98JKXLwf-138" value="结果记录器" style="rounded=0;whiteSpace=wrap;html=1;fontSize=20;fillColor=#f8cecc;strokeColor=#b85450;sketch=1;curveFitting=1;jiggle=2;" vertex="1" parent="1">
          <mxGeometry x="1250" y="1580" width="120" height="40" as="geometry" />
        </mxCell>
        <mxCell id="X8sbBprj1SlT98JKXLwf-139" style="edgeStyle=orthogonalEdgeStyle;rounded=0;orthogonalLoop=1;jettySize=auto;html=1;exitX=1;exitY=0.5;exitDx=0;exitDy=0;sketch=1;curveFitting=1;jiggle=2;" edge="1" parent="1" source="X8sbBprj1SlT98JKXLwf-141" target="X8sbBprj1SlT98JKXLwf-130">
          <mxGeometry relative="1" as="geometry" />
        </mxCell>
        <mxCell id="X8sbBprj1SlT98JKXLwf-140" value="写文件" style="edgeLabel;html=1;align=center;verticalAlign=middle;resizable=0;points=[];fontSize=20;sketch=1;curveFitting=1;jiggle=2;" vertex="1" connectable="0" parent="X8sbBprj1SlT98JKXLwf-139">
          <mxGeometry x="-0.12" y="-1" relative="1" as="geometry">
            <mxPoint as="offset" />
          </mxGeometry>
        </mxCell>
        <mxCell id="X8sbBprj1SlT98JKXLwf-141" value="错误记录器" style="rounded=0;whiteSpace=wrap;html=1;fontSize=20;fillColor=#f8cecc;strokeColor=#b85450;sketch=1;curveFitting=1;jiggle=2;" vertex="1" parent="1">
          <mxGeometry x="1250" y="1660" width="120" height="40" as="geometry" />
        </mxCell>
        <mxCell id="X8sbBprj1SlT98JKXLwf-142" style="edgeStyle=orthogonalEdgeStyle;rounded=0;orthogonalLoop=1;jettySize=auto;html=1;exitX=1;exitY=0.5;exitDx=0;exitDy=0;sketch=1;curveFitting=1;jiggle=2;" edge="1" parent="1" source="X8sbBprj1SlT98JKXLwf-144" target="X8sbBprj1SlT98JKXLwf-126">
          <mxGeometry relative="1" as="geometry" />
        </mxCell>
        <mxCell id="X8sbBprj1SlT98JKXLwf-143" value="读数据" style="edgeLabel;html=1;align=center;verticalAlign=middle;resizable=0;points=[];fontSize=20;sketch=1;curveFitting=1;jiggle=2;" vertex="1" connectable="0" parent="X8sbBprj1SlT98JKXLwf-142">
          <mxGeometry x="0.1355" y="-1" relative="1" as="geometry">
            <mxPoint as="offset" />
          </mxGeometry>
        </mxCell>
        <mxCell id="X8sbBprj1SlT98JKXLwf-144" value="" style="rounded=1;whiteSpace=wrap;html=1;fillColor=#ffe6cc;strokeColor=#d79b00;sketch=1;curveFitting=1;jiggle=2;" vertex="1" parent="1">
          <mxGeometry x="760" y="1400" width="240" height="10" as="geometry" />
        </mxCell>
        <mxCell id="X8sbBprj1SlT98JKXLwf-145" value="请求参数 channel" style="text;html=1;align=center;verticalAlign=middle;whiteSpace=wrap;rounded=0;fontSize=20;fillColor=#f5f5f5;strokeColor=#666666;fontColor=#333333;sketch=1;curveFitting=1;jiggle=2;" vertex="1" parent="1">
          <mxGeometry x="520" y="1390" width="200" height="30" as="geometry" />
        </mxCell>
        <mxCell id="X8sbBprj1SlT98JKXLwf-146" value="... ...." style="rounded=0;whiteSpace=wrap;html=1;fontSize=20;fillColor=#f8cecc;strokeColor=#b85450;sketch=1;curveFitting=1;jiggle=2;" vertex="1" parent="1">
          <mxGeometry x="960" y="1620" width="120" height="40" as="geometry" />
        </mxCell>
        <mxCell id="X8sbBprj1SlT98JKXLwf-147" style="edgeStyle=orthogonalEdgeStyle;rounded=0;orthogonalLoop=1;jettySize=auto;html=1;exitX=1;exitY=0;exitDx=0;exitDy=0;entryX=0;entryY=0.5;entryDx=0;entryDy=0;sketch=1;curveFitting=1;jiggle=2;" edge="1" parent="1" source="X8sbBprj1SlT98JKXLwf-149" target="X8sbBprj1SlT98JKXLwf-138">
          <mxGeometry relative="1" as="geometry">
            <Array as="points">
              <mxPoint x="1360" y="1770" />
              <mxPoint x="1170" y="1770" />
              <mxPoint x="1170" y="1600" />
            </Array>
          </mxGeometry>
        </mxCell>
        <mxCell id="X8sbBprj1SlT98JKXLwf-148" value="读数据" style="edgeLabel;html=1;align=center;verticalAlign=middle;resizable=0;points=[];fontSize=20;sketch=1;curveFitting=1;jiggle=2;" vertex="1" connectable="0" parent="X8sbBprj1SlT98JKXLwf-147">
          <mxGeometry x="-0.542" y="-1" relative="1" as="geometry">
            <mxPoint as="offset" />
          </mxGeometry>
        </mxCell>
        <mxCell id="X8sbBprj1SlT98JKXLwf-149" value="" style="rounded=1;whiteSpace=wrap;html=1;fillColor=#fff2cc;strokeColor=#d6b656;sketch=1;curveFitting=1;jiggle=2;" vertex="1" parent="1">
          <mxGeometry x="1120" y="1795" width="240" height="10" as="geometry" />
        </mxCell>
        <mxCell id="X8sbBprj1SlT98JKXLwf-150" value="对比结果 channel" style="text;html=1;align=center;verticalAlign=middle;whiteSpace=wrap;rounded=0;fontSize=20;fillColor=#f5f5f5;fontColor=#333333;strokeColor=#666666;sketch=1;curveFitting=1;jiggle=2;" vertex="1" parent="1">
          <mxGeometry x="1405" y="1785" width="205" height="30" as="geometry" />
        </mxCell>
        <mxCell id="X8sbBprj1SlT98JKXLwf-151" style="edgeStyle=orthogonalEdgeStyle;rounded=0;orthogonalLoop=1;jettySize=auto;html=1;exitX=1;exitY=0.5;exitDx=0;exitDy=0;entryX=0.5;entryY=1;entryDx=0;entryDy=0;sketch=1;curveFitting=1;jiggle=2;" edge="1" parent="1" source="X8sbBprj1SlT98JKXLwf-153" target="X8sbBprj1SlT98JKXLwf-141">
          <mxGeometry relative="1" as="geometry">
            <Array as="points">
              <mxPoint x="1380" y="1883" />
              <mxPoint x="1380" y="1740" />
              <mxPoint x="1310" y="1740" />
            </Array>
          </mxGeometry>
        </mxCell>
        <mxCell id="X8sbBprj1SlT98JKXLwf-152" value="读数据" style="edgeLabel;html=1;align=center;verticalAlign=middle;resizable=0;points=[];fontSize=20;sketch=1;curveFitting=1;jiggle=2;" vertex="1" connectable="0" parent="X8sbBprj1SlT98JKXLwf-151">
          <mxGeometry x="0.4359" relative="1" as="geometry">
            <mxPoint as="offset" />
          </mxGeometry>
        </mxCell>
        <mxCell id="X8sbBprj1SlT98JKXLwf-153" value="" style="rounded=1;whiteSpace=wrap;html=1;fillColor=#fff2cc;strokeColor=#d6b656;sketch=1;curveFitting=1;jiggle=2;" vertex="1" parent="1">
          <mxGeometry x="1120" y="1878" width="240" height="10" as="geometry" />
        </mxCell>
        <mxCell id="X8sbBprj1SlT98JKXLwf-154" value="错误数据 channel" style="text;html=1;align=center;verticalAlign=middle;whiteSpace=wrap;rounded=0;fontSize=20;fillColor=#f5f5f5;fontColor=#333333;strokeColor=#666666;sketch=1;curveFitting=1;jiggle=2;" vertex="1" parent="1">
          <mxGeometry x="1407.5" y="1868" width="200" height="30" as="geometry" />
        </mxCell>
        <mxCell id="X8sbBprj1SlT98JKXLwf-155" value="&lt;font style=&quot;font-size: 24px;&quot;&gt;Task_N&lt;/font&gt;" style="text;html=1;align=center;verticalAlign=middle;whiteSpace=wrap;rounded=0;fillColor=#f5f5f5;strokeColor=#666666;fontColor=#333333;sketch=1;curveFitting=1;jiggle=2;" vertex="1" parent="1">
          <mxGeometry x="1520" y="1400" width="300" height="80" as="geometry" />
        </mxCell>
        <mxCell id="X8sbBprj1SlT98JKXLwf-156" value="。。。 。。。" style="rounded=1;whiteSpace=wrap;html=1;sketch=1;curveFitting=1;jiggle=2;" vertex="1" parent="1">
          <mxGeometry x="390" y="1220" width="1520" height="110" as="geometry" />
        </mxCell>
      </root>
    </mxGraphModel>
  </diagram>
</mxfile>
